<?xml version="1.0" standalone="no"?>
<!DOCTYPE svg PUBLIC "-//W3C//DTD SVG 20010904//EN"
 "http://www.w3.org/TR/2001/REC-SVG-20010904/DTD/svg10.dtd">
<svg version="1.0" xmlns="http://www.w3.org/2000/svg"
 width="261.000000pt" height="193.000000pt" viewBox="0 0 261.000000 193.000000"
 preserveAspectRatio="xMidYMid meet">

<g transform="translate(0.000000,193.000000) scale(0.100000,-0.100000)"
fill="#000000" stroke="none">
<path d="M1140 1709 c-19 -12 -53 -28 -75 -36 -22 -7 -73 -29 -113 -49 -40
-19 -80 -33 -89 -32 -12 2 -20 -8 -26 -32 -5 -19 -18 -59 -28 -88 -36 -99 -20
-545 21 -622 6 -11 30 -32 53 -47 49 -30 92 -73 74 -73 -7 0 -23 7 -36 16 -18
13 -40 15 -108 12 l-85 -5 3 325 4 325 -60 37 c-134 82 -184 81 -323 -8 -67
-42 -112 -103 -112 -151 0 -20 -7 -61 -15 -91 -9 -34 -15 -101 -15 -173 0
-129 1 -131 72 -219 l38 -46 -27 -22 c-34 -26 -44 -61 -50 -165 -4 -76 -3 -82
21 -104 14 -14 26 -32 26 -41 0 -38 228 -213 295 -226 52 -9 327 0 350 12 63
34 84 44 95 44 18 0 80 53 96 82 10 19 14 63 14 150 l0 123 50 -55 c27 -30 78
-102 112 -159 47 -79 78 -117 129 -161 37 -32 78 -61 91 -65 12 -4 46 -18 73
-31 61 -28 159 -44 280 -43 l90 0 27 43 c16 24 28 53 28 65 0 12 5 32 12 44
24 46 31 99 37 298 l6 205 55 58 c52 55 76 96 115 196 32 84 54 258 37 294 -6
11 -13 37 -16 56 -9 52 -106 189 -185 261 l-71 64 -117 6 c-65 4 -172 14 -238
24 -66 10 -201 19 -300 22 -171 3 -182 2 -215 -18z m377 -9 c83 -17 224 -32
350 -37 l123 -4 63 -59 c83 -78 173 -210 188 -275 36 -169 -24 -390 -139 -508
l-57 -58 -6 -207 c-6 -199 -12 -252 -37 -299 -7 -12 -12 -31 -12 -43 0 -11
-12 -38 -26 -60 -26 -39 -27 -40 -88 -40 -68 1 -195 15 -203 24 -3 3 3 27 13
55 16 46 16 60 4 181 -9 93 -18 134 -27 137 -8 3 -15 4 -17 2 -2 -2 3 -60 12
-128 13 -115 13 -129 -2 -178 -9 -29 -21 -53 -26 -53 -22 0 -137 60 -150 79
-8 11 -19 21 -25 21 -19 0 -62 52 -114 139 -28 46 -51 87 -51 91 0 4 -12 17
-26 31 -15 13 -34 36 -44 51 -9 15 -55 55 -101 88 -46 34 -102 78 -124 99 -22
21 -53 46 -70 57 -86 55 -96 92 -102 393 -4 196 -2 218 16 265 11 28 21 60 23
71 3 20 116 81 208 112 24 8 60 26 80 39 32 23 43 24 177 24 78 0 164 -4 190
-10z m-912 -248 c17 -8 46 -26 66 -39 l36 -23 -4 -308 c-3 -169 -9 -320 -14
-336 -5 -16 -7 -32 -4 -34 3 -3 29 2 59 11 54 18 98 22 109 11 8 -8 -9 -41
-39 -73 -25 -27 -31 -51 -14 -51 16 0 59 50 76 88 8 17 16 32 19 32 3 0 26
-11 52 -24 27 -13 64 -31 84 -41 61 -28 79 -74 79 -196 0 -130 -12 -153 -101
-197 -113 -56 -141 -62 -281 -62 -142 0 -146 1 -251 72 -63 43 -157 134 -157
153 0 6 -11 22 -25 35 -22 20 -25 32 -24 84 0 34 4 69 8 79 6 17 10 16 39 -14
22 -23 35 -30 43 -22 7 7 -2 23 -30 52 l-41 43 22 19 c26 21 34 23 43 9 10
-16 86 -52 93 -45 4 4 -6 17 -23 29 -54 38 -128 117 -167 178 -24 36 -25 221
-3 294 8 27 15 66 15 87 0 21 7 51 15 67 14 28 73 80 90 80 5 0 16 7 25 15 9
8 34 24 56 35 43 22 96 19 149 -8z"/>
<path d="M1457 1568 c-18 -19 -22 -32 -19 -69 3 -38 8 -49 28 -58 14 -6 33
-11 42 -11 9 0 37 -14 61 -30 24 -17 48 -30 54 -30 5 0 7 -7 3 -15 -4 -11 1
-15 17 -15 13 0 40 -9 62 -20 30 -15 59 -20 121 -20 132 0 143 14 64 82 -81
70 -250 163 -350 194 -58 18 -57 18 -83 -8z m131 -35 l33 -14 -37 -34 c-35
-33 -38 -34 -60 -20 -13 8 -30 15 -39 15 -16 0 -20 34 -9 64 7 18 53 14 112
-11z m100 -50 c61 -40 68 -75 20 -102 -25 -14 -30 -13 -75 11 -55 31 -58 50
-15 85 33 27 35 28 70 6z m167 -106 c25 -21 45 -42 45 -47 0 -15 -130 -11
-165 4 l-30 13 28 14 c18 8 30 23 34 40 7 34 24 29 88 -24z"/>
<path d="M1190 1531 c-25 -15 -54 -38 -64 -50 -11 -11 -23 -21 -28 -21 -5 0
-16 -7 -24 -15 -9 -8 -24 -15 -35 -15 -11 0 -23 -8 -26 -17 -9 -23 -27 -37
-80 -63 -32 -15 -43 -26 -43 -43 0 -50 45 -77 128 -77 60 0 68 3 120 43 32 24
65 46 74 49 9 4 25 19 35 35 10 15 35 44 56 64 44 44 46 61 11 106 -32 42 -63
43 -124 4z m105 -32 c14 -26 13 -30 -10 -54 -14 -14 -29 -25 -33 -25 -17 1
-80 57 -74 66 14 19 76 52 89 47 8 -3 20 -18 28 -34z m-84 -92 c13 -23 -30
-67 -67 -67 -34 0 -94 29 -94 45 0 7 21 26 47 43 46 30 48 30 76 14 16 -9 33
-25 38 -35z m-164 -64 c14 -9 43 -19 65 -23 l40 -5 -46 -32 c-58 -41 -121 -45
-160 -10 -29 25 -26 33 24 65 42 26 44 26 77 5z"/>
<path d="M1341 1333 c-30 -26 -32 -32 -29 -81 3 -59 22 -75 26 -22 4 61 10 75
40 92 24 14 39 15 93 8 82 -12 114 -42 106 -102 -4 -33 -2 -39 11 -36 25 5 29
84 5 110 -30 35 -93 58 -158 58 -52 0 -66 -4 -94 -27z"/>
<path d="M1380 1256 c-14 -17 -10 -58 6 -63 6 -2 14 6 16 19 3 13 9 31 13 41
9 21 -17 24 -35 3z"/>
<path d="M1463 1244 c-8 -22 17 -65 36 -62 11 2 15 12 13 28 -7 44 -37 66 -49
34z"/>
<path d="M1890 1109 c-129 -43 -313 -70 -519 -75 -101 -3 -192 -9 -202 -15
-10 -5 -49 -9 -88 -9 -39 0 -72 -3 -72 -7 -1 -5 -3 -17 -4 -28 -2 -11 -4 -24
-6 -30 -3 -12 21 -65 30 -65 3 0 28 -20 54 -45 27 -25 53 -45 57 -45 14 0 140
-91 140 -101 0 -5 8 -9 18 -9 10 0 22 -4 28 -9 14 -15 118 -40 172 -42 26 -1
60 4 76 10 16 7 42 9 58 6 21 -5 28 -3 28 9 0 9 8 16 18 16 28 0 239 148 288
204 l46 51 -4 77 c-6 109 -35 135 -118 107z m80 -60 c0 -20 -66 -49 -111 -49
-17 0 -40 -5 -51 -11 -17 -9 -28 -8 -55 6 -18 10 -33 24 -33 31 0 14 69 38
154 53 33 6 62 13 65 17 8 8 31 -27 31 -47z m-274 -44 c14 -15 19 -27 12 -31
-22 -14 -134 -37 -187 -38 -17 -1 -30 10 -47 37 l-24 37 62 1 c35 1 77 5 93 9
52 13 67 11 91 -15z m-458 -38 l3 -37 -85 0 c-101 0 -116 5 -116 36 0 23 3 24
68 24 37 0 74 5 82 10 28 18 45 7 48 -33z m184 26 c9 -10 21 -28 27 -40 l12
-23 -96 0 -95 0 0 40 0 40 68 0 c53 0 72 -4 84 -17z m558 -26 c0 -37 -51 -107
-78 -107 -9 0 -30 18 -46 40 -17 22 -33 40 -38 40 -4 0 -8 6 -8 14 0 9 17 17
53 21 28 4 61 11 72 16 37 14 45 10 45 -24z m-193 -37 c18 -17 45 -47 60 -67
26 -34 27 -37 9 -47 -10 -6 -43 -31 -74 -55 -72 -54 -108 -73 -134 -69 -21 3
-38 29 -107 160 l-30 57 57 6 c47 6 99 18 167 40 6 2 12 4 15 4 3 1 19 -13 37
-29z m-526 -85 c18 -58 24 -105 14 -105 -3 0 -28 16 -55 35 -27 19 -55 35 -61
35 -6 0 -28 18 -50 40 -22 22 -44 40 -49 40 -6 0 -10 5 -10 10 0 7 35 10 96 8
l96 -3 19 -60z m223 43 c7 -13 29 -53 48 -89 19 -37 42 -77 51 -90 10 -13 17
-27 17 -30 0 -11 -60 -29 -94 -29 -47 0 -145 28 -175 50 -23 15 -26 24 -23 54
2 20 -3 58 -12 86 -9 27 -16 54 -16 59 0 7 35 11 95 11 87 0 96 -2 109 -22z"/>
<path d="M433 1381 c-35 -4 -61 -15 -78 -31 -23 -22 -26 -31 -22 -69 5 -45 22
-65 47 -55 8 3 77 9 153 11 75 3 137 8 137 11 0 2 -15 22 -32 43 -18 21 -42
50 -53 63 -23 29 -70 38 -152 27z m146 -67 c18 -25 31 -47 29 -49 -8 -7 -224
-9 -235 -2 -21 14 -15 47 15 72 23 20 38 24 93 25 l65 0 33 -46z"/>
<path d="M475 1182 c-153 -2 -214 -12 -174 -27 25 -9 364 9 362 20 -2 12 16
11 -188 7z"/>
<path d="M285 1110 c-7 -12 89 -20 232 -20 77 0 134 4 138 10 3 6 0 10 -7 10
-7 0 -91 1 -186 3 -95 3 -175 1 -177 -3z"/>
<path d="M611 1049 c-28 -11 -203 -15 -248 -5 -17 4 -34 3 -37 -3 -9 -14 84
-31 173 -31 76 0 171 23 171 41 0 11 -28 11 -59 -2z"/>
</g>
</svg>
